# xmcd
#
# Track frame offsets: 
#        150
#        13115
#        27575
#        40770
#        56475
#        66630
#        90605
#        106790
#        122850
#        134620
#        150705
#        169990
#
# Disc length: 2445 seconds
#
# Revision: 0
# Processed by: cddbd v1.4PL0 Copyright (c) Steve Scherf et al.
# Submitted via: ExactAudioCopy v0.90a11
#
DISCID=a8098b0c
DTITLE=M Train - Scramble
DYEAR=1900
DGENRE=
TTITLE0=I've Been Gone To Long
TTITLE1=Huggin and Squeezin
TTITLE2=Thats Life
TTITLE3=Stranded
TTITLE4=Scramble
TTITLE5=You Damn Right This Is Wrong
TTITLE6=Six Pack Full Of Blues
TTITLE7=Dont Even Trust Me
TTITLE8=The Ride
TTITLE9=I Dont Want
TTITLE10=Daddy's Back
TTITLE11=Gotto Have It
EXTD=
EXTT0=
EXTT1=
EXTT2=
EXTT3=
EXTT4=
EXTT5=
EXTT6=
EXTT7=
EXTT8=
EXTT9=
EXTT10=
EXTT11=
PLAYORDER=
